#Comment line ignore any data following # character 
#Hierarchical Translation and Rotation (.htr) file 
[Header]	
#Header keywords are followed by a single value 
FileType HTR		#Single word string
DataType HTRS		#Translation followed by rotation and scale data
FileVersion 1		#integer
NumSegments 84		#integer
NumFrames 2		#integer
DataFrameRate 30		#integer, data frame rate in this file
EulerRotationOrder ZYX
CalibrationUnits mm
RotationUnits Degrees
GlobalAxisofGravity Y
BoneLengthAxis Y
ScaleFactor 1.00
[SegmentNames&Hierarchy]
#CHILD	PARENT
MASTER GLOBAL
root MASTER
chest root
L_mid_tent01 root
R_mid_tent01 root
spine01 root
Bip01_Neck chest
L_humerus chest
R_humerus chest
weapon_bone chest
Bip01_Head Bip01_Neck
eye_left_bone Bip01_Head
eye_right_bone Bip01_Head
L_forearm L_humerus
L_front_hand L_forearm
L_weapon_bone L_forearm
L_front_hand01_01 L_front_hand
L_front_hand02_01 L_front_hand
L_front_hand03_01 L_front_hand
L_front_hand01_02 L_front_hand01_01
L_front_hand02_02 L_front_hand02_01
L_front_hand03_02 L_front_hand03_01
R_forearm R_humerus
R_front_hand R_forearm
R_weapon_bone R_forearm
R_front_hand01_01 R_front_hand
R_front_hand02_01 R_front_hand
R_front_hand03_01 R_front_hand
R_front_hand01_02 R_front_hand01_01
R_front_hand02_02 R_front_hand02_01
R_front_hand03_02 R_front_hand03_01
null_rope01_connect L_mid_tent01
Rope1_Seg01 null_rope01_connect
Rope1_Seg02 Rope1_Seg01
Rope1_Seg03 Rope1_Seg02
Rope1_Seg04 Rope1_Seg03
Rope1_Seg05 Rope1_Seg04
Rope1_Seg06 Rope1_Seg05
Rope1_Seg07 Rope1_Seg06
Rope1_Seg09 Rope1_Seg07
L_mid_hand01 Rope1_Seg09
L_mid_hand02 Rope1_Seg09
L_mid_hand03 Rope1_Seg09
null_rope02_connect R_mid_tent01
Rope2_Seg01 null_rope02_connect
Rope2_Seg02 Rope2_Seg01
Rope2_Seg03 Rope2_Seg02
Rope2_Seg04 Rope2_Seg03
Rope2_Seg05 Rope2_Seg04
Rope2_Seg06 Rope2_Seg05
Rope2_Seg07 Rope2_Seg06
Rope2_Seg09 Rope2_Seg07
R_mid_hand01 Rope2_Seg09
R_mid_hand02 Rope2_Seg09
R_mid_hand03 Rope2_Seg09
spine02 spine01
spine03 spine02
pelvis spine03
null_rope03_connect pelvis
null_rope04_connect pelvis
Rope3_Seg01 null_rope03_connect
Rope3_Seg02 Rope3_Seg01
Rope3_Seg03 Rope3_Seg02
Rope3_Seg04 Rope3_Seg03
Rope3_Seg05 Rope3_Seg04
Rope3_Seg06 Rope3_Seg05
Rope3_Seg07 Rope3_Seg06
Rope3_Seg08 Rope3_Seg07
Rope3_Seg09 Rope3_Seg08
R_rear_hand01 Rope3_Seg09
R_rear_hand02 Rope3_Seg09
R_rear_hand03 Rope3_Seg09
Rope4_Seg01 null_rope04_connect
Rope4_Seg02 Rope4_Seg01
Rope4_Seg03 Rope4_Seg02
Rope4_Seg04 Rope4_Seg03
Rope4_Seg05 Rope4_Seg04
Rope4_Seg06 Rope4_Seg05
Rope4_Seg07 Rope4_Seg06
Rope4_Seg08 Rope4_Seg07
Rope4_Seg09 Rope4_Seg08
L_rear_hand01 Rope4_Seg09
L_rear_hand02 Rope4_Seg09
L_rear_hand03 Rope4_Seg09
[BasePosition]
#SegmentName Tx, Ty, Tz, Rx, Ry, Rz, BoneLength
MASTER 0.000000 0.000000 0.000000 -90.000000 0.000000 0.000000 10.000000 
root 0.000000 0.000000 0.000000 0.000000 0.000000 0.000000 10.000000 
chest 0.000000 0.000000 0.000000 0.000000 0.000000 0.000000 10.000000 
L_mid_tent01 0.000000 0.000000 0.000000 0.000000 0.000000 0.000000 10.000000 
R_mid_tent01 0.000000 0.000000 0.000000 0.000000 0.000000 0.000000 10.000000 
spine01 0.000000 0.000000 0.000000 0.000000 0.000000 0.000000 10.000000 
Bip01_Neck 0.000000 0.000000 0.000000 0.000000 0.000000 0.000000 10.000000 
L_humerus 0.000000 0.000000 0.000000 0.000000 0.000000 0.000000 10.000000 
R_humerus 0.000000 0.000000 0.000000 0.000000 0.000000 0.000000 10.000000 
weapon_bone 0.000000 0.000000 0.000000 0.000000 0.000000 0.000000 10.000000 
Bip01_Head 0.000000 0.000000 0.000000 0.000000 0.000000 0.000000 10.000000 
eye_left_bone 0.000000 0.000000 0.000000 0.000000 0.000000 0.000000 10.000000 
eye_right_bone 0.000000 0.000000 0.000000 0.000000 0.000000 0.000000 10.000000 
L_forearm 0.000000 0.000000 0.000000 0.000000 0.000000 0.000000 10.000000 
L_front_hand 0.000000 0.000000 0.000000 0.000000 0.000000 0.000000 10.000000 
L_weapon_bone 0.000000 0.000000 0.000000 0.000000 0.000000 0.000000 10.000000 
L_front_hand01_01 0.000000 0.000000 0.000000 0.000000 0.000000 0.000000 10.000000 
L_front_hand02_01 0.000000 0.000000 0.000000 0.000000 0.000000 0.000000 10.000000 
L_front_hand03_01 0.000000 0.000000 0.000000 0.000000 0.000000 0.000000 10.000000 
L_front_hand01_02 0.000000 0.000000 0.000000 0.000000 0.000000 0.000000 10.000000 
L_front_hand02_02 0.000000 0.000000 0.000000 0.000000 0.000000 0.000000 10.000000 
L_front_hand03_02 0.000000 0.000000 0.000000 0.000000 0.000000 0.000000 10.000000 
R_forearm 0.000000 0.000000 0.000000 0.000000 0.000000 0.000000 10.000000 
R_front_hand 0.000000 0.000000 0.000000 0.000000 0.000000 0.000000 10.000000 
R_weapon_bone 0.000000 0.000000 0.000000 0.000000 0.000000 0.000000 10.000000 
R_front_hand01_01 0.000000 0.000000 0.000000 0.000000 0.000000 0.000000 10.000000 
R_front_hand02_01 0.000000 0.000000 0.000000 0.000000 0.000000 0.000000 10.000000 
R_front_hand03_01 0.000000 0.000000 0.000000 0.000000 0.000000 0.000000 10.000000 
R_front_hand01_02 0.000000 0.000000 0.000000 0.000000 0.000000 0.000000 10.000000 
R_front_hand02_02 0.000000 0.000000 0.000000 0.000000 0.000000 0.000000 10.000000 
R_front_hand03_02 0.000000 0.000000 0.000000 0.000000 0.000000 0.000000 10.000000 
null_rope01_connect 0.000000 0.000000 0.000000 0.000000 0.000000 0.000000 10.000000 
Rope1_Seg01 0.000000 0.000000 0.000000 0.000000 0.000000 0.000000 10.000000 
Rope1_Seg02 0.000000 0.000000 0.000000 0.000000 0.000000 0.000000 10.000000 
Rope1_Seg03 0.000000 0.000000 0.000000 0.000000 0.000000 0.000000 10.000000 
Rope1_Seg04 0.000000 0.000000 0.000000 0.000000 0.000000 0.000000 10.000000 
Rope1_Seg05 0.000000 0.000000 0.000000 0.000000 0.000000 0.000000 10.000000 
Rope1_Seg06 0.000000 0.000000 0.000000 0.000000 0.000000 0.000000 10.000000 
Rope1_Seg07 0.000000 0.000000 0.000000 0.000000 0.000000 0.000000 10.000000 
Rope1_Seg09 0.000000 0.000000 0.000000 0.000000 0.000000 0.000000 10.000000 
L_mid_hand01 0.000000 0.000000 0.000000 0.000000 0.000000 0.000000 10.000000 
L_mid_hand02 0.000000 0.000000 0.000000 0.000000 0.000000 0.000000 10.000000 
L_mid_hand03 0.000000 0.000000 0.000000 0.000000 0.000000 0.000000 10.000000 
null_rope02_connect 0.000000 0.000000 0.000000 0.000000 0.000000 0.000000 10.000000 
Rope2_Seg01 0.000000 0.000000 0.000000 0.000000 0.000000 0.000000 10.000000 
Rope2_Seg02 0.000000 0.000000 0.000000 0.000000 0.000000 0.000000 10.000000 
Rope2_Seg03 0.000000 0.000000 0.000000 0.000000 0.000000 0.000000 10.000000 
Rope2_Seg04 0.000000 0.000000 0.000000 0.000000 0.000000 0.000000 10.000000 
Rope2_Seg05 0.000000 0.000000 0.000000 0.000000 0.000000 0.000000 10.000000 
Rope2_Seg06 0.000000 0.000000 0.000000 0.000000 0.000000 0.000000 10.000000 
Rope2_Seg07 0.000000 0.000000 0.000000 0.000000 0.000000 0.000000 10.000000 
Rope2_Seg09 0.000000 0.000000 0.000000 0.000000 0.000000 0.000000 10.000000 
R_mid_hand01 0.000000 0.000000 0.000000 0.000000 0.000000 0.000000 10.000000 
R_mid_hand02 0.000000 0.000000 0.000000 0.000000 0.000000 0.000000 10.000000 
R_mid_hand03 0.000000 0.000000 0.000000 0.000000 0.000000 0.000000 10.000000 
spine02 0.000000 0.000000 0.000000 0.000000 0.000000 0.000000 10.000000 
spine03 0.000000 0.000000 0.000000 0.000000 0.000000 0.000000 10.000000 
pelvis 0.000000 0.000000 0.000000 0.000000 0.000000 0.000000 10.000000 
null_rope03_connect 0.000000 0.000000 0.000000 0.000000 0.000000 0.000000 10.000000 
null_rope04_connect 0.000000 0.000000 0.000000 0.000000 0.000000 0.000000 10.000000 
Rope3_Seg01 0.000000 0.000000 0.000000 0.000000 0.000000 0.000000 10.000000 
Rope3_Seg02 0.000000 0.000000 0.000000 0.000000 0.000000 0.000000 10.000000 
Rope3_Seg03 0.000000 0.000000 0.000000 0.000000 0.000000 0.000000 10.000000 
Rope3_Seg04 0.000000 0.000000 0.000000 0.000000 0.000000 0.000000 10.000000 
Rope3_Seg05 0.000000 0.000000 0.000000 0.000000 0.000000 0.000000 10.000000 
Rope3_Seg06 0.000000 0.000000 0.000000 0.000000 0.000000 0.000000 10.000000 
Rope3_Seg07 0.000000 0.000000 0.000000 0.000000 0.000000 0.000000 10.000000 
Rope3_Seg08 0.000000 0.000000 0.000000 0.000000 0.000000 0.000000 10.000000 
Rope3_Seg09 0.000000 0.000000 0.000000 0.000000 0.000000 0.000000 10.000000 
R_rear_hand01 0.000000 0.000000 0.000000 0.000000 0.000000 0.000000 10.000000 
R_rear_hand02 0.000000 0.000000 0.000000 0.000000 0.000000 0.000000 10.000000 
R_rear_hand03 0.000000 0.000000 0.000000 0.000000 0.000000 0.000000 10.000000 
Rope4_Seg01 0.000000 0.000000 0.000000 0.000000 0.000000 0.000000 10.000000 
Rope4_Seg02 0.000000 0.000000 0.000000 0.000000 0.000000 0.000000 10.000000 
Rope4_Seg03 0.000000 0.000000 0.000000 0.000000 0.000000 0.000000 10.000000 
Rope4_Seg04 0.000000 0.000000 0.000000 0.000000 0.000000 0.000000 10.000000 
Rope4_Seg05 0.000000 0.000000 0.000000 0.000000 0.000000 0.000000 10.000000 
Rope4_Seg06 0.000000 0.000000 0.000000 0.000000 0.000000 0.000000 10.000000 
Rope4_Seg07 0.000000 0.000000 0.000000 0.000000 0.000000 0.000000 10.000000 
Rope4_Seg08 0.000000 0.000000 0.000000 0.000000 0.000000 0.000000 10.000000 
Rope4_Seg09 0.000000 0.000000 0.000000 0.000000 0.000000 0.000000 10.000000 
L_rear_hand01 0.000000 0.000000 0.000000 0.000000 0.000000 0.000000 10.000000 
L_rear_hand02 0.000000 0.000000 0.000000 0.000000 0.000000 0.000000 10.000000 
L_rear_hand03 0.000000 0.000000 0.000000 0.000000 0.000000 0.000000 10.000000 
#Beginning of Data. Separated by tabs
#Fr	Tx	Ty	Tz	Rx	Ry	Rz	SF
[MASTER]
31 0.000000 0.000000 0.000000 0.001660 0.001660 0.001660 0.000000
32 0.000000 0.000000 0.000000 0.001660 0.001660 0.001660 0.000000
[root]
31 -5.269510 68.260796 1452.268433 -86.302788 -11.608602 -92.438187 1453.881348
32 -10.723355 37.613960 1449.325684 -88.996170 -11.587965 -90.254646 1449.853271
[chest]
31 -84.512650 -34.090519 0.000000 -2.377786 0.269345 170.598206 91.129311
32 -84.512650 -34.090519 0.000000 -2.232764 0.085072 168.928711 91.129311
[L_mid_tent01]
31 27.299061 22.179268 -249.918686 -2.874003 23.708487 23.221832 252.381683
32 27.299061 22.179264 -249.918686 -12.317154 17.077194 16.847473 252.381683
[R_mid_tent01]
31 23.228794 24.509907 226.238495 -157.849625 -8.756483 21.482559 228.744751
32 23.228794 24.509907 226.238495 -161.537506 -12.760245 22.237806 228.744751
[spine01]
31 -0.361383 -0.195265 0.000000 0.001943 0.001316 21.787392 0.410763
32 -0.361383 -0.195265 0.000000 0.001945 0.001314 21.910784 0.410763
[Bip01_Neck]
31 165.484543 71.581718 0.000119 175.896118 1.177290 24.871183 180.302734
32 165.484543 71.581718 0.000119 175.896118 1.177290 24.871183 180.302734
[L_humerus]
31 -13.983130 -135.272980 -120.471481 -17.548588 68.975060 72.034149 181.680161
32 -13.983130 -135.272980 -120.471481 -7.900743 68.804924 81.473030 181.680161
[R_humerus]
31 -13.983309 -135.273102 125.287651 47.248882 -74.720551 50.774532 184.909012
32 -13.983309 -135.273102 125.287651 29.478090 -72.069427 66.708763 184.909012
[weapon_bone]
31 235.964890 -300.705902 0.000000 0.000000 -89.951546 -128.212341 382.234833
32 235.964890 -300.705902 0.000000 0.000000 -89.951546 -128.212341 382.234833
[Bip01_Head]
31 218.394882 141.043564 7.889634 5.150375 3.048446 -65.453339 260.099701
32 213.201920 143.917099 8.223935 3.376277 2.171518 -64.309616 257.361267
[eye_left_bone]
31 27.140806 156.038651 -74.750732 -104.218590 -85.597984 4.718000 175.135254
32 26.669306 155.760056 -74.659843 -104.218590 -85.597984 4.718000 174.775681
[eye_right_bone]
31 37.217953 156.873489 53.958958 75.788536 -85.594551 4.713911 170.017761
32 36.648521 156.584152 54.054424 75.788536 -85.594551 4.713911 169.657288
[L_forearm]
31 322.776093 0.000000 -0.000119 0.000302 -0.002328 -104.796257 322.776093
32 322.776093 0.000000 -0.000119 0.000372 -0.002318 -108.221878 322.776093
[L_front_hand]
31 241.149185 -0.042021 -3.300071 39.578915 3.347552 -5.332743 241.171753
32 241.149185 -0.042021 -3.300071 39.578915 3.347552 -5.332743 241.171753
[L_weapon_bone]
31 156.183838 0.000000 0.000000 0.001621 0.001698 -2.639561 156.183838
32 156.183838 0.000000 0.000000 0.001650 0.001670 -0.685791 156.183838
[L_front_hand01_01]
31 86.095154 20.947098 -0.655860 -0.288967 -0.524182 66.581490 88.609184
32 86.095154 20.947098 -0.655860 -0.288967 -0.524182 66.581490 88.609184
[L_front_hand02_01]
31 86.935165 -11.437475 24.513514 142.546371 -55.255390 -47.355206 91.046425
32 86.935165 -11.437475 24.513514 142.546371 -55.255390 -47.355206 91.046425
[L_front_hand03_01]
31 86.637497 -14.123976 -20.424902 -142.852753 53.473362 -49.356201 90.126129
32 86.637497 -14.123976 -20.424902 -142.852753 53.473362 -49.356201 90.126129
[L_front_hand01_02]
31 71.020905 -0.000179 0.000030 0.001003 0.002122 -39.385181 71.020905
32 71.020905 -0.000179 0.000030 0.000667 0.002281 -57.378902 71.020905
[L_front_hand02_02]
31 71.020927 -0.000119 0.000060 0.001003 0.002122 -39.385181 71.020927
32 71.020927 -0.000119 0.000060 0.000667 0.002281 -57.378902 71.020927
[L_front_hand03_02]
31 71.020905 -0.000060 0.000060 0.001003 0.002122 -39.385181 71.020905
32 71.020905 -0.000060 0.000060 0.000667 0.002281 -57.378902 71.020905
[R_forearm]
31 322.776428 -0.000060 0.000030 0.208489 0.026394 -98.079887 322.776428
32 322.776428 -0.000060 0.000030 0.204577 0.053215 -105.232353 322.776428
[R_front_hand]
31 238.847015 -0.006795 2.210259 -2.635298 -10.645461 -26.312506 238.857239
32 238.847015 -0.006795 2.210259 -2.635298 -10.645461 -26.312506 238.857239
[R_weapon_bone]
31 155.664093 0.002503 -0.000030 0.003487 0.001180 -90.988930 155.664078
32 155.664093 0.002503 -0.000030 0.003487 0.001180 -90.988930 155.664078
[R_front_hand01_01]
31 87.624611 14.231146 22.918642 -154.633499 -59.950619 61.746044 91.683487
32 87.624611 14.231146 22.918642 -154.633499 -59.950619 61.746044 91.683487
[R_front_hand02_01]
31 89.356956 14.367283 -19.491137 154.602661 58.302849 63.744389 92.579636
32 89.356956 14.367283 -19.491137 154.602661 58.302849 63.744389 92.579636
[R_front_hand03_01]
31 87.286232 -22.307278 -0.143439 0.162155 -0.423168 -75.767921 90.091743
32 87.286232 -22.307278 -0.143439 0.162155 -0.423168 -75.767921 90.091743
[R_front_hand01_02]
31 71.020905 0.000060 0.000119 0.002323 -0.000334 106.381714 71.020905
32 71.020905 0.000060 0.000119 0.002323 -0.000334 106.381714 71.020905
[R_front_hand02_02]
31 71.020844 -0.000030 -0.000119 0.002323 -0.000334 106.381714 71.020836
32 71.020844 -0.000030 -0.000119 0.002323 -0.000334 106.381714 71.020836
[R_front_hand03_02]
31 71.020905 0.000000 0.000030 0.002323 -0.000334 106.381714 71.020905
32 71.020905 0.000000 0.000030 0.002323 -0.000334 106.381714 71.020905
[null_rope01_connect]
31 328.732483 0.000000 -0.000238 -99.913162 -65.380829 176.932144 328.732483
32 328.732483 0.000000 -0.000238 -129.819458 -69.658813 -147.435379 328.732483
[Rope1_Seg01]
31 -0.000020 0.000002 0.000010 76.556152 12.466763 -127.186058 0.000023
32 -0.000020 0.000001 0.000005 68.021027 6.456285 -127.101364 0.000020
[Rope1_Seg02]
31 139.999863 -0.000179 0.000000 -15.787306 2.146664 4.404539 139.999863
32 139.999863 -0.000179 0.000000 -9.597544 2.766076 1.884393 139.999863
[Rope1_Seg03]
31 139.999924 0.000060 -0.000060 -16.439653 -0.248028 11.896613 139.999924
32 139.999924 0.000060 -0.000060 -12.693410 2.904889 3.850761 139.999924
[Rope1_Seg04]
31 139.999924 -0.000060 -0.000119 -6.787459 6.504521 -3.754352 139.999924
32 139.999924 -0.000060 -0.000119 -14.676770 3.162618 6.042664 139.999924
[Rope1_Seg05]
31 139.999832 0.000119 -0.000060 -3.273206 6.129428 -6.037692 139.999832
32 139.999832 0.000119 -0.000060 -3.975653 5.035428 -3.809623 139.999832
[Rope1_Seg06]
31 139.999954 0.000119 -0.000060 -4.042344 2.211713 -1.610853 139.999954
32 139.999954 0.000119 -0.000060 -1.930655 2.063425 -1.537094 139.999954
[Rope1_Seg07]
31 139.999985 0.000060 0.000000 -3.996559 1.406198 -0.878851 139.999985
32 139.999985 0.000060 0.000000 -1.896927 1.047627 -0.460871 139.999985
[Rope1_Seg09]
31 121.602913 0.000119 -0.000089 57.568462 -1.360173 0.846031 121.602913
32 121.602913 0.000119 -0.000089 57.568462 -1.360173 0.846031 121.602913
[L_mid_hand01]
31 103.859421 1.038730 8.195221 114.205658 -52.799187 -20.236021 104.187431
32 103.859421 1.038730 8.195221 110.942101 -46.080975 -15.945299 104.187431
[L_mid_hand02]
31 105.572853 -4.139662 -10.864139 -154.664093 37.928852 -51.799191 106.211075
32 105.572853 -4.139662 -10.864139 -149.938400 34.541100 -43.816120 106.211075
[L_mid_hand03]
31 104.641464 17.579376 -3.913581 -11.126174 15.210819 57.052753 106.179977
32 104.641464 17.579376 -3.913581 -12.960130 13.691434 49.711212 106.179977
[null_rope02_connect]
31 328.732849 0.000179 -0.000119 -173.926102 62.918236 -72.903259 328.732849
32 328.732849 0.000179 -0.000119 -158.166809 66.792046 -55.523487 328.732849
[Rope2_Seg01]
31 0.000095 0.000153 0.000072 -49.391632 16.651672 -34.081039 0.000194
32 0.000095 0.000153 0.000074 2.229128 13.196155 -40.161205 0.000195
[Rope2_Seg02]
31 139.999741 -0.000060 -0.000119 86.571915 3.669508 -11.168703 139.999756
32 139.999741 -0.000060 -0.000119 71.493370 -4.901493 -13.788818 139.999756
[Rope2_Seg03]
31 140.000107 0.000030 0.000000 18.406919 -14.598114 -1.310552 140.000107
32 140.000107 0.000030 0.000000 5.169832 -11.249001 2.253337 140.000107
[Rope2_Seg04]
31 139.999802 0.000000 -0.000060 18.989822 -19.151592 -6.097947 139.999802
32 139.999802 0.000000 -0.000060 9.426929 -15.303288 -1.102359 139.999802
[Rope2_Seg05]
31 139.999985 -0.000060 0.000119 18.948086 -21.479204 -13.429717 139.999985
32 139.999985 -0.000060 0.000119 6.447993 -13.400828 -1.938647 139.999985
[Rope2_Seg06]
31 139.999893 -0.000030 -0.000119 2.936719 -10.150521 -1.510851 139.999893
32 139.999893 -0.000030 -0.000119 1.462495 -5.983324 0.192687 139.999893
[Rope2_Seg07]
31 139.999893 0.000060 -0.000060 0.998908 -5.516162 -0.452495 139.999893
32 139.999893 0.000060 -0.000060 0.637195 -3.546401 0.249138 139.999893
[Rope2_Seg09]
31 121.338966 0.000089 -0.000060 33.793236 -1.359788 -0.847141 121.338966
32 121.338966 0.000089 -0.000060 33.793236 -1.359788 -0.847141 121.338966
[R_mid_hand01]
31 104.680779 11.144459 -10.335981 -44.145947 19.560663 21.759447 105.778534
32 104.680779 11.144459 -10.335981 -44.145947 19.560663 21.759447 105.778534
[R_mid_hand02]
31 104.070427 2.443552 8.231699 74.186180 -24.483591 7.232481 104.424065
32 104.070427 2.443552 8.231699 74.186180 -24.483591 7.232481 104.424065
[R_mid_hand03]
31 106.028137 -11.221827 -5.996406 -166.520828 8.347036 -28.494411 106.788818
32 106.028137 -11.221827 -5.996406 -166.520828 8.347037 -28.494413 106.788818
[spine02]
31 129.756927 0.001550 0.000119 0.323106 -4.048436 -12.425811 129.756927
32 129.756927 0.001550 0.000119 0.340529 -4.046735 -12.640493 129.756927
[spine03]
31 78.614044 0.081491 -4.899007 1.948434 3.806304 17.234962 78.766579
32 78.614044 0.081487 -4.899006 1.923506 3.817740 16.863840 78.766579
[pelvis]
31 169.435242 0.051022 0.000000 -0.060520 -0.180207 14.122814 169.435257
32 169.435242 0.051022 0.000000 -0.060481 -0.180220 14.097895 169.435257
[null_rope03_connect]
31 -1.257226 -2.466202 137.391083 -18.996967 -85.008247 80.000008 137.418976
32 -1.257226 -2.466202 137.391083 0.368759 -87.907623 61.008007 137.418976
[null_rope04_connect]
31 -1.259640 -2.480268 -137.844437 -18.996967 -85.008247 80.000008 137.872513
32 -1.259640 -2.480268 -137.844437 0.368759 -87.907623 61.008007 137.872513
[Rope3_Seg01]
31 0.000000 0.000000 0.000000 -135.453186 24.768332 -86.642670 0.000000
32 0.000000 0.000000 0.000000 -136.394745 29.933903 -85.710876 0.000000
[Rope3_Seg02]
31 139.999924 -0.000119 0.000060 0.103685 -0.709391 -1.299754 139.999924
32 139.999924 -0.000119 0.000060 0.313849 -0.476262 -2.507345 139.999924
[Rope3_Seg03]
31 139.999924 -0.000119 0.000119 0.102816 -0.872388 -1.591739 139.999924
32 139.999924 -0.000119 0.000119 0.298670 -0.579336 -2.967643 139.999924
[Rope3_Seg04]
31 139.999924 0.000119 0.000000 0.194602 -5.249992 -6.580692 139.999924
32 139.999924 0.000119 0.000000 0.321738 -4.037294 -7.522354 139.999924
[Rope3_Seg05]
31 139.999924 -0.000238 0.000060 0.254927 2.362758 1.486024 139.999924
32 139.999924 -0.000238 0.000060 0.132597 0.796085 -2.515044 139.999924
[Rope3_Seg06]
31 139.999893 -0.000119 -0.000060 3.390920 14.076522 14.992086 139.999893
32 139.999893 -0.000119 -0.000060 2.232083 12.303771 11.699492 139.999893
[Rope3_Seg07]
31 139.999771 0.000060 -0.000119 2.256370 7.184106 6.962376 139.999771
32 139.999771 0.000060 -0.000119 2.170439 8.251987 7.324325 139.999771
[Rope3_Seg08]
31 139.999985 -0.000060 0.000000 1.666508 3.920131 3.508744 139.999985
32 139.999985 -0.000060 0.000000 1.669163 4.489604 3.502916 139.999985
[Rope3_Seg09]
31 90.185997 -0.000179 -0.000060 14.019509 -1.359098 -0.848162 90.185997
32 90.185997 -0.000179 -0.000060 11.218660 -1.359213 -0.847709 90.185997
[R_rear_hand01]
31 103.366196 -6.073594 -10.757982 -160.019470 14.769054 -24.439312 104.101845
32 103.366196 -6.073594 -10.757982 -160.019470 14.769056 -24.439318 104.101845
[R_rear_hand02]
31 100.509819 12.039542 -7.992327 -35.779446 15.980558 23.927948 101.543350
32 100.509819 12.039542 -7.992327 -35.779446 15.980558 23.927948 101.543350
[R_rear_hand03]
31 101.539970 5.215704 5.435467 83.711815 -25.208061 6.550417 101.819031
32 101.539970 5.215704 5.435467 83.711815 -25.208061 6.550417 101.819031
[Rope4_Seg01]
31 -0.000010 -0.000005 -0.000153 38.710709 22.050978 -124.856888 0.000153
32 -0.000010 -0.000002 -0.000153 38.204098 19.616920 -127.274704 0.000153
[Rope4_Seg02]
31 139.999985 0.000060 0.000119 0.161787 6.883404 3.073722 139.999985
32 139.999985 0.000060 0.000119 0.344087 8.588625 4.293772 139.999985
[Rope4_Seg03]
31 139.999924 0.000000 -0.000238 0.332802 8.549458 3.831187 139.999924
32 139.999924 0.000000 -0.000238 0.579730 10.913352 5.474473 139.999924
[Rope4_Seg04]
31 139.999985 0.000000 0.000119 1.541032 19.241783 14.168161 139.999985
32 139.999985 0.000000 0.000119 2.241573 22.657244 15.207517 139.999985
[Rope4_Seg05]
31 139.999802 -0.000060 -0.000119 1.210370 7.199505 1.802486 139.999802
32 139.999802 -0.000060 -0.000119 0.637059 10.637145 5.432433 139.999802
[Rope4_Seg06]
31 139.999924 0.000000 0.000060 9.739737 -20.959473 -28.315512 139.999924
32 139.999924 0.000000 0.000060 7.925992 -19.069429 -19.972092 139.999924
[Rope4_Seg07]
31 139.999802 0.000000 0.000000 1.207952 -15.772857 -17.073921 139.999802
32 139.999802 0.000000 0.000000 4.037151 -21.551098 -18.346050 139.999802
[Rope4_Seg08]
31 139.999924 0.000000 0.000119 -2.539606 -4.848075 -5.770613 139.999924
32 139.999924 0.000000 0.000119 -1.648794 -6.106884 -5.212224 139.999924
[Rope4_Seg09]
31 90.185791 0.000060 0.000060 163.509857 2.230269 0.848077 90.185791
32 90.185791 0.000060 0.000060 162.619659 2.230002 0.851776 90.185791
[L_rear_hand01]
31 101.696655 -8.392275 -7.654577 -36.144974 -15.023620 157.444031 102.329041
32 101.696655 -8.392275 -7.654577 -36.144974 -15.023620 157.444031 102.329041
[L_rear_hand02]
31 102.726799 -1.568258 5.773216 83.794235 23.585917 173.644012 102.900848
32 102.726799 -1.568258 5.773216 83.794235 23.585917 173.644012 102.900848
[L_rear_hand03]
31 104.552910 9.721220 -10.420293 -159.624359 -14.202496 -157.147644 105.519653
32 104.552910 9.721220 -10.420293 -159.624359 -14.202496 -157.147644 105.519653
